<svg xmlns="http://www.w3.org/2000/svg" version="1.1" xmlns:xlink="http://www.w3.org/1999/xlink" xmlns:svgjs="http://svgjs.dev/svgjs" width="2000" height="1247" viewBox="0 0 2000 1247"><g transform="matrix(1,0,0,1,-1.2121178138727373,0.5403679738737992)"><svg viewBox="0 0 396 247" data-background-color="#ffffff" preserveAspectRatio="xMidYMid meet" height="1247" width="2000" xmlns="http://www.w3.org/2000/svg" xmlns:xlink="http://www.w3.org/1999/xlink"><g id="tight-bounds" transform="matrix(1,0,0,1,0.2399994322801149,-0.10003359225888175)"><svg viewBox="0 0 395.52 247.2" height="247.2" width="395.52"><g><svg></svg></g><g><svg viewBox="0 0 395.52 247.2" height="247.2" width="395.52"><g><g><path xmlns="http://www.w3.org/2000/svg" d="M190.48 247.193c-15.443 0.221-28.239-2.162-38.387-7.148-10.148-4.942-18.09-12.487-23.827-22.635-3.842-6.797-6.941-14.831-9.299-24.102h27.628c1.234 3.286 2.625 6.246 4.174 8.879 4.412 7.501 10.435 12.84 18.068 16.017 7.589 3.221 17.23 4.831 28.923 4.832 10.369 0 21.069-1.324 32.1-3.972 11.031-2.647 20.407-5.515 28.128-8.604l0-17.152 25.15 0v52.23h-19.193l-3.971-17.208c-7.942 3.971-18.024 8.052-30.247 12.245-12.266 4.192-25.349 6.398-39.247 6.618zM129.259 30.57c6.177-10.237 14.627-17.892 25.349-22.966 10.678-5.074 24.069-7.611 40.174-7.611 8.604 0 17.539 0.331 26.805 0.993 9.266 0.662 18.311 1.655 27.135 2.978 8.825 1.324 16.987 2.868 24.489 4.633v19.855c-4.412-0.662-10.59-1.39-18.532-2.184-7.942-0.75-16.811-1.346-26.606-1.787-9.839-0.441-19.613-0.662-29.32-0.662-15.884 0-28.173 3.265-36.865 9.796-6.271 4.656-11.167 11.415-14.688 20.277l-27.667 0c2.468-8.865 5.71-16.639 9.726-23.322z" fill="#2257bf" fill-rule="nonzero" stroke="none" stroke-width="1" stroke-linecap="butt" stroke-linejoin="miter" stroke-miterlimit="10" stroke-dasharray="" stroke-dashoffset="0" font-family="none" font-weight="none" font-size="none" text-anchor="none" style="mix-blend-mode: normal" data-fill-palette-color="tertiary"></path></g></g><g transform="matrix(1,0,0,1,0,69.64040133779264)"><svg viewBox="0 0 395.52 107.91919732441471" height="107.91919732441471" width="395.52"><g><svg viewBox="0 0 395.52 107.91919732441471" height="107.91919732441471" width="395.52"><g><svg viewBox="0 0 395.52 107.91919732441471" height="107.91919732441471" width="395.52"><g><svg viewBox="0 0 395.52 107.91919732441471" height="107.91919732441471" width="395.52"><g><svg viewBox="0 0 395.52 107.91919732441471" height="107.91919732441471" width="395.52"><g><svg viewBox="0 0 395.52 107.91919732441471" height="107.91919732441471" width="395.52"><g transform="matrix(1,0,0,1,0,0)"><svg width="395.52" viewBox="2.950000047683716 -37.099998474121094 179.38999938964844 48.94999694824219" height="107.91919732441471" data-palette-color="#2257bf"><path d="M14.75 0.25L14.75 0.25Q11.25 0.3 8.95-0.83 6.65-1.95 5.35-4.25 4.05-6.55 3.5-10.1 2.95-13.65 2.95-18.5L2.95-18.5Q2.95-23.15 3.53-26.65 4.1-30.15 5.5-32.48 6.9-34.8 9.33-35.95 11.75-37.1 15.4-37.1L15.4-37.1Q17.35-37.1 19.45-36.95 21.55-36.8 23.55-36.5 25.55-36.2 27.25-35.8L27.25-35.8 27.25-32.8Q26.25-32.95 24.45-33.13 22.65-33.3 20.43-33.4 18.2-33.5 16-33.5L16-33.5Q12.4-33.5 10.43-32.02 8.45-30.55 7.68-27.23 6.9-23.9 6.9-18.45L6.9-18.45Q6.9-14.05 7.33-11.15 7.75-8.25 8.75-6.55 9.75-4.85 11.48-4.13 13.2-3.4 15.85-3.4L15.85-3.4Q18.2-3.4 20.7-4 23.2-4.6 24.95-5.3L24.95-5.3 24.95-16.15 16.05-16.15 16.05-19.1Q17-19.25 18.35-19.35 19.7-19.45 21.23-19.53 22.75-19.6 24.3-19.6L24.3-19.6Q25.6-19.6 26.75-19.58 27.9-19.55 28.75-19.4L28.75-19.4 28.75 0 25.85 0 25.25-2.6Q23.45-1.7 20.68-0.75 17.9 0.2 14.75 0.25ZM44.3 0.2L44.3 0.2Q43.1 0.2 41.75-0.03 40.4-0.25 39.2-0.95 38-1.65 37.25-3.08 36.5-4.5 36.5-6.95L36.5-6.95 36.5-29.4Q36.5-31.55 37.12-32.98 37.75-34.4 38.8-35.23 39.85-36.05 41.15-36.43 42.45-36.8 43.75-36.8L43.75-36.8Q46.85-36.75 49.5-36.68 52.15-36.6 54.52-36.52 56.9-36.45 59.15-36.35L59.15-36.35 59.15-33.15 44.75-33.15Q42.8-33.15 41.65-32.1 40.5-31.05 40.5-28.75L40.5-28.75 40.5-20.05 56.95-19.8 56.95-16.75 40.5-16.5 40.5-7.85Q40.5-6 41.12-5.05 41.75-4.1 42.8-3.8 43.85-3.5 44.95-3.5L44.95-3.5 59.15-3.5 59.15-0.3Q56.85-0.15 54.32-0.05 51.8 0.05 49.27 0.1 46.75 0.15 44.3 0.2ZM79.15 0.3L79.15 0.3Q75.59 0.3 72.92-0.38 70.25-1.05 68.47-2.95 66.7-4.85 65.82-8.55 64.95-12.25 64.95-18.25L64.95-18.25Q64.95-24.25 65.84-27.98 66.75-31.7 68.55-33.68 70.34-35.65 73-36.38 75.65-37.1 79.15-37.1L79.15-37.1Q82.75-37.1 85.42-36.38 88.09-35.65 89.87-33.68 91.65-31.7 92.5-27.98 93.34-24.25 93.34-18.25L93.34-18.25Q93.34-12.25 92.47-8.55 91.59-4.85 89.82-2.95 88.05-1.05 85.4-0.38 82.75 0.3 79.15 0.3ZM79.15-3.25L79.15-3.25Q81.95-3.25 83.9-3.8 85.84-4.35 87.07-5.93 88.3-7.5 88.84-10.45 89.4-13.4 89.4-18.25L89.4-18.25Q89.4-23.3 88.82-26.35 88.25-29.4 87.02-30.95 85.8-32.5 83.87-33 81.95-33.5 79.15-33.5L79.15-33.5Q76.55-33.5 74.62-33 72.7-32.5 71.42-30.95 70.15-29.4 69.52-26.35 68.9-23.3 68.9-18.25L68.9-18.25Q68.9-13.4 69.42-10.45 69.95-7.5 71.15-5.93 72.34-4.35 74.32-3.8 76.3-3.25 79.15-3.25ZM111.79 0.3L111.79 0.3Q107.84 0.3 104.42 0.13 100.99-0.05 98.44-0.35L98.44-0.35 98.44-3.4 110.49-3.4Q112.64-3.4 114.34-3.85 116.04-4.3 117.02-5.53 117.99-6.75 117.99-9L117.99-9 117.99-11.45Q117.99-13.4 117.02-14.55 116.04-15.7 114.59-16.2 113.14-16.7 111.59-16.75L111.59-16.75 102.14-17.1 102.14-20 111.44-20.4Q114.14-20.5 115.82-21.58 117.49-22.65 117.49-25.2L117.49-25.2 117.49-27.65Q117.49-30.4 115.67-31.88 113.84-33.35 110.19-33.35L110.19-33.35 99.69-33.35 99.69-36.4Q101.99-36.7 104.97-36.9 107.94-37.1 111.64-37.1L111.64-37.1Q114.94-37.05 117.12-35.98 119.29-34.9 120.34-32.98 121.39-31.05 121.39-28.45L121.39-28.45 121.39-25.3Q121.39-23.6 120.87-22.38 120.34-21.15 119.52-20.35 118.69-19.55 117.77-19.13 116.84-18.7 116.09-18.55L116.09-18.55Q116.94-18.35 117.94-17.82 118.94-17.3 119.87-16.4 120.79-15.5 121.39-14.15 121.99-12.8 121.99-10.95L121.99-10.95 121.99-8.4Q121.99-4.15 119.32-1.93 116.64 0.3 111.79 0.3ZM133.39 0L129.39 0 129.39-36.8 144.04-36.8Q145.64-36.8 147.32-36.38 148.99-35.95 150.44-34.73 151.89-33.5 152.77-31.18 153.64-28.85 153.64-25.05L153.64-25.05Q153.64-21.15 152.72-18.78 151.79-16.4 150.32-15.13 148.84-13.85 147.14-13.4 145.44-12.95 143.84-12.95L143.84-12.95Q143.09-12.95 141.64-13 140.19-13.05 138.57-13.13 136.94-13.2 135.54-13.3 134.14-13.4 133.39-13.45L133.39-13.45 133.39 0ZM133.39-33.2L133.39-16.5 143.34-16.5Q145.09-16.5 146.54-17.25 147.99-18 148.82-19.85 149.64-21.7 149.64-25L149.64-25Q149.64-28.25 148.82-30.03 147.99-31.8 146.64-32.5 145.29-33.2 143.69-33.2L143.69-33.2 133.39-33.2ZM170.29 11.85L167.19 11.85 170.59 0Q169.34-0.05 167.99-0.6 166.64-1.15 165.49-2.5 164.34-3.85 163.59-6.25L163.59-6.25 157.19-26.7 161.34-26.7 167.29-7.1Q167.84-5.55 168.46-4.8 169.09-4.05 169.74-3.75 170.39-3.45 170.86-3.43 171.34-3.4 171.44-3.4L171.44-3.4 178.29-26.7 182.34-26.7 172.59 6.9 170.29 11.85Z" opacity="1" transform="matrix(1,0,0,1,0,0)" fill="#2257bf" class="undefined-text-0" data-fill-palette-color="primary" id="text-0"></path></svg></g></svg></g></svg></g></svg></g></svg></g></svg></g></svg></g></svg></g><defs></defs></svg><rect width="395.52" height="247.2" fill="none" stroke="none" visibility="hidden"></rect></g></svg></g></svg>